<svg width="50" height="50" viewBox="0 0 50 50" fill="none" xmlns="http://www.w3.org/2000/svg">
<path d="M43.3082 44.5576C43.8581 44.0076 43.9609 43.768 43.9609 43.0365C43.9609 41.6483 42.7531 40.6755 41.3599 40.9419C41.0908 40.9919 40.6157 41.2919 40.3041 41.6019C39.3156 42.5905 39.5895 44.3619 40.8288 44.9958C41.6697 45.4258 42.6053 45.2601 43.3082 44.5576ZM37.4341 41.1633C39.2686 40.333 40.2034 38.9126 40.2034 36.9558C40.2034 32.8415 35.3562 30.8087 32.4578 33.7073C31.5605 34.6044 31.1077 35.694 31.1077 36.9558C31.1077 40.223 34.5111 42.4865 37.4341 41.1633ZM28.1997 34.1662C30.235 33.5998 32.0332 32.2226 33.7874 29.8869C34.2215 29.3087 34.3162 29.2676 34.7924 29.4494C35.6861 29.7923 37.6663 29.9033 38.8738 29.6815C43.6493 28.8073 47.1107 24.0026 46.3143 19.3533C45.81 16.409 43.3776 13.1587 40.6915 11.839C39.0474 11.0312 36.9105 10.588 35.3865 10.7383L34.2028 10.8562L34.0673 10.2287C33.5573 7.86583 30.8267 5.6519 27.5704 4.96083C26.0272 4.63226 23.7607 4.73226 21.9513 5.20369C19.4371 5.85833 17.2668 7.60405 16.2228 9.81083C15.824 10.6537 15.6474 10.8533 15.3932 10.7476C14.7344 10.4726 11.3786 10.4155 10.3417 10.6619C7.28815 11.3815 5.20015 13.3065 4.08567 16.4301C3.63858 17.683 3.57528 18.1544 3.57161 20.2583C3.56804 22.3833 3.62743 22.8301 4.09145 24.1605C4.74404 26.0319 5.59391 27.3665 6.93135 28.6205C8.22405 29.8323 9.66286 30.5448 11.6267 30.9451C12.9433 31.213 13.4289 31.2237 15.2132 31.0201L17.2769 30.7844L18.7651 31.9833C19.5836 32.643 20.8148 33.448 21.501 33.7726C22.6392 34.3108 22.9428 34.3669 24.9564 34.4105C26.4639 34.4462 27.4925 34.3676 28.1997 34.1712L28.1997 34.1662Z" fill="white"/>
</svg>