<svg width="159" height="41" viewBox="0 0 159 41" fill="none" xmlns="http://www.w3.org/2000/svg">
<path d="M2.656 31V8.6H12.352C14.3573 8.6 16.0853 8.93067 17.536 9.592C18.9867 10.232 20.1067 11.16 20.896 12.376C21.6853 13.592 22.08 15.0427 22.08 16.728C22.08 18.392 21.6853 19.832 20.896 21.048C20.1067 22.264 18.9867 23.2027 17.536 23.864C16.0853 24.504 14.3573 24.824 12.352 24.824H5.536L7.84 22.488V31H2.656ZM7.84 23.064L5.536 20.6H12.064C13.664 20.6 14.8587 20.2587 15.648 19.576C16.4373 18.8933 16.832 17.944 16.832 16.728C16.832 15.4907 16.4373 14.5307 15.648 13.848C14.8587 13.1653 13.664 12.824 12.064 12.824H5.536L7.84 10.36V23.064ZM24.4615 31V13.784H29.4535V31H24.4615ZM26.9575 11.384C26.0402 11.384 25.2935 11.1173 24.7175 10.584C24.1415 10.0507 23.8535 9.38933 23.8535 8.6C23.8535 7.81067 24.1415 7.14933 24.7175 6.616C25.2935 6.08267 26.0402 5.816 26.9575 5.816C27.8748 5.816 28.6215 6.072 29.1975 6.584C29.7735 7.07467 30.0615 7.71467 30.0615 8.504C30.0615 9.336 29.7735 10.0293 29.1975 10.584C28.6428 11.1173 27.8962 11.384 26.9575 11.384ZM41.1265 31.256C39.2705 31.256 37.6172 30.8827 36.1665 30.136C34.7158 29.368 33.5745 28.312 32.7425 26.968C31.9318 25.624 31.5265 24.0987 31.5265 22.392C31.5265 20.664 31.9318 19.1387 32.7425 17.816C33.5745 16.472 34.7158 15.4267 36.1665 14.68C37.6172 13.912 39.2705 13.528 41.1265 13.528C42.9398 13.528 44.5185 13.912 45.8625 14.68C47.2065 15.4267 48.1985 16.504 48.8385 17.912L44.9665 19.992C44.5185 19.1813 43.9532 18.584 43.2705 18.2C42.6092 17.816 41.8838 17.624 41.0945 17.624C40.2412 17.624 39.4732 17.816 38.7905 18.2C38.1078 18.584 37.5638 19.128 37.1585 19.832C36.7745 20.536 36.5825 21.3893 36.5825 22.392C36.5825 23.3947 36.7745 24.248 37.1585 24.952C37.5638 25.656 38.1078 26.2 38.7905 26.584C39.4732 26.968 40.2412 27.16 41.0945 27.16C41.8838 27.16 42.6092 26.9787 43.2705 26.616C43.9532 26.232 44.5185 25.624 44.9665 24.792L48.8385 26.904C48.1985 28.2907 47.2065 29.368 45.8625 30.136C44.5185 30.8827 42.9398 31.256 41.1265 31.256ZM60.6088 31.256C59.1581 31.256 57.8888 30.936 56.8008 30.296C55.7128 29.656 54.8594 28.6853 54.2408 27.384C53.6434 26.0613 53.3447 24.3973 53.3447 22.392C53.3447 20.3653 53.6328 18.7013 54.2088 17.4C54.7848 16.0987 55.6168 15.128 56.7048 14.488C57.7928 13.848 59.0941 13.528 60.6088 13.528C62.2301 13.528 63.6808 13.9013 64.9608 14.648C66.2621 15.3733 67.2861 16.3973 68.0328 17.72C68.8008 19.0427 69.1848 20.6 69.1848 22.392C69.1848 24.2053 68.8008 25.7733 68.0328 27.096C67.2861 28.4187 66.2621 29.4427 64.9608 30.168C63.6808 30.8933 62.2301 31.256 60.6088 31.256ZM50.4327 37.208V13.784H55.2008V17.304L55.1048 22.424L55.4248 27.512V37.208H50.4327ZM59.7448 27.16C60.5768 27.16 61.3128 26.968 61.9528 26.584C62.6141 26.2 63.1368 25.656 63.5208 24.952C63.9261 24.2267 64.1287 23.3733 64.1287 22.392C64.1287 21.3893 63.9261 20.536 63.5208 19.832C63.1368 19.128 62.6141 18.584 61.9528 18.2C61.3128 17.816 60.5768 17.624 59.7448 17.624C58.9127 17.624 58.1661 17.816 57.5048 18.2C56.8434 18.584 56.3208 19.128 55.9368 19.832C55.5528 20.536 55.3608 21.3893 55.3608 22.392C55.3608 23.3733 55.5528 24.2267 55.9368 24.952C56.3208 25.656 56.8434 26.2 57.5048 26.584C58.1661 26.968 58.9127 27.16 59.7448 27.16ZM79.4385 31.256C77.6038 31.256 75.9718 30.872 74.5425 30.104C73.1345 29.336 72.0145 28.2907 71.1825 26.968C70.3718 25.624 69.9665 24.0987 69.9665 22.392C69.9665 20.664 70.3718 19.1387 71.1825 17.816C72.0145 16.472 73.1345 15.4267 74.5425 14.68C75.9718 13.912 77.6038 13.528 79.4385 13.528C81.2518 13.528 82.8732 13.912 84.3025 14.68C85.7318 15.4267 86.8518 16.4613 87.6625 17.784C88.4732 19.1067 88.8785 20.6427 88.8785 22.392C88.8785 24.0987 88.4732 25.624 87.6625 26.968C86.8518 28.2907 85.7318 29.336 84.3025 30.104C82.8732 30.872 81.2518 31.256 79.4385 31.256ZM79.4385 27.16C80.2705 27.16 81.0172 26.968 81.6785 26.584C82.3398 26.2 82.8625 25.656 83.2465 24.952C83.6305 24.2267 83.8225 23.3733 83.8225 22.392C83.8225 21.3893 83.6305 20.536 83.2465 19.832C82.8625 19.128 82.3398 18.584 81.6785 18.2C81.0172 17.816 80.2705 17.624 79.4385 17.624C78.6065 17.624 77.8598 17.816 77.1985 18.2C76.5372 18.584 76.0038 19.128 75.5985 19.832C75.2145 20.536 75.0225 21.3893 75.0225 22.392C75.0225 23.3733 75.2145 24.2267 75.5985 24.952C76.0038 25.656 76.5372 26.2 77.1985 26.584C77.8598 26.968 78.6065 27.16 79.4385 27.16ZM99.1272 31.256C97.2926 31.256 95.6606 30.872 94.2312 30.104C92.8232 29.336 91.7032 28.2907 90.8712 26.968C90.0606 25.624 89.6552 24.0987 89.6552 22.392C89.6552 20.664 90.0606 19.1387 90.8712 17.816C91.7032 16.472 92.8232 15.4267 94.2312 14.68C95.6606 13.912 97.2926 13.528 99.1272 13.528C100.941 13.528 102.562 13.912 103.991 14.68C105.421 15.4267 106.541 16.4613 107.351 17.784C108.162 19.1067 108.567 20.6427 108.567 22.392C108.567 24.0987 108.162 25.624 107.351 26.968C106.541 28.2907 105.421 29.336 103.991 30.104C102.562 30.872 100.941 31.256 99.1272 31.256ZM99.1272 27.16C99.9592 27.16 100.706 26.968 101.367 26.584C102.029 26.2 102.551 25.656 102.935 24.952C103.319 24.2267 103.511 23.3733 103.511 22.392C103.511 21.3893 103.319 20.536 102.935 19.832C102.551 19.128 102.029 18.584 101.367 18.2C100.706 17.816 99.9592 17.624 99.1272 17.624C98.2952 17.624 97.5486 17.816 96.8872 18.2C96.2259 18.584 95.6926 19.128 95.2872 19.832C94.9032 20.536 94.7112 21.3893 94.7112 22.392C94.7112 23.3733 94.9032 24.2267 95.2872 24.952C95.6926 25.656 96.2259 26.2 96.8872 26.584C97.5486 26.968 98.2952 27.16 99.1272 27.16ZM111.232 31V13.4C111.232 11.4587 111.808 9.912 112.96 8.76C114.112 7.58666 115.755 7 117.888 7C118.613 7 119.307 7.07467 119.968 7.224C120.651 7.37333 121.227 7.608 121.696 7.928L120.384 11.544C120.107 11.352 119.797 11.2027 119.456 11.096C119.115 10.9893 118.752 10.936 118.368 10.936C117.643 10.936 117.077 11.1493 116.672 11.576C116.288 11.9813 116.096 12.6 116.096 13.432V15.032L116.224 17.176V31H111.232ZM108.576 18.008V14.168H120.512V18.008H108.576Z" fill="black"/>
<g clip-path="url(#clip0_25_1250)">
<path d="M124.805 23.6447C124.318 23.6692 123.894 23.2778 123.871 22.7925C123.849 22.3083 124.236 21.881 124.719 21.8589C124.719 21.8589 124.721 21.8588 124.724 21.8587C125.833 21.8124 126.94 21.8199 128.049 21.7693C129.098 21.7192 130.152 21.6776 131.2 21.5991C131.676 21.562 132.092 21.9669 132.114 22.4325C132.136 22.9266 131.753 23.3 131.28 23.3458C130.233 23.4439 129.178 23.4549 128.128 23.4963C127.021 23.5392 125.913 23.5875 124.805 23.6447ZM125.033 20.6255C125.873 20.3725 126.703 20.0892 127.545 19.8481C128.371 19.6067 129.198 19.3663 130.021 19.1118C130.799 18.8726 131.582 18.6605 132.368 18.4505C133.11 18.2512 133.849 18.0247 134.601 17.8644C134.811 17.8197 135.007 17.6224 135.102 17.4395C135.212 17.234 135.232 16.9856 135.16 16.7632C135.04 16.3908 134.67 16.1427 134.288 16.1601C134.212 16.1636 134.136 16.178 134.06 16.2034C133.342 16.4508 132.605 16.6411 131.874 16.8399C131.487 16.9441 131.098 17.0385 130.712 17.1449C130.311 17.2519 129.917 17.3805 129.52 17.4972C127.846 17.9975 126.157 18.4394 124.478 18.9203C124.008 19.0545 123.757 19.5983 123.904 20.0484C124.056 20.5223 124.564 20.7663 125.033 20.6255ZM135.129 28.5972C135.622 28.7007 136.123 28.3996 136.237 27.9015C136.29 27.6603 136.245 27.4017 136.11 27.1943C135.993 27.0112 135.765 26.819 135.54 26.7942C134.885 26.7234 134.222 26.6857 133.565 26.6325C132.919 26.5678 132.277 26.4755 131.633 26.4052C130.95 26.3302 130.266 26.253 129.583 26.1582C128.938 26.0683 128.298 25.9453 127.657 25.8398C126.935 25.7227 126.212 25.6079 125.49 25.5105C125.404 25.4991 125.32 25.4931 125.239 25.4968C125.093 25.5035 124.954 25.5415 124.819 25.6299C124.628 25.7514 124.491 25.9472 124.442 26.1706C124.391 26.3986 124.433 26.6442 124.561 26.8388C124.673 27.0122 124.886 27.1909 125.102 27.2161C125.982 27.3216 126.866 27.4225 127.742 27.5512C128.569 27.6723 129.389 27.8276 130.218 27.9354C131.051 28.043 131.888 28.1286 132.72 28.245C133.523 28.354 134.335 28.432 135.129 28.5972ZM156.794 24.5936C156.754 24.0938 156.686 23.5996 156.563 23.1135C156.445 22.661 156.308 22.2171 156.177 21.7675C156.117 21.5697 156.07 21.366 155.995 21.1701C155.922 20.974 155.832 20.7821 155.743 20.5923C155.547 20.173 155.35 19.7307 155.085 19.3496C154.803 18.9408 154.447 18.5879 154.123 18.2139C153.879 17.937 153.628 17.6702 153.354 17.4253C153.498 17.1745 153.6 16.8971 153.641 16.6105C153.709 16.1188 153.69 15.6476 153.648 15.1567C153.604 14.6767 153.538 14.1869 153.377 13.7331C153.314 13.5465 153.232 13.3662 153.151 13.187C153.023 12.9015 152.892 12.6063 152.704 12.352C152.553 12.1464 152.37 11.9565 152.202 11.7604C152.057 11.5907 151.904 11.429 151.738 11.28C151.376 10.9558 150.992 10.6689 150.56 10.4498C150.131 10.2307 149.659 10.0802 149.189 9.98012C148.73 9.8795 148.246 9.84244 147.78 9.90097C147.489 9.93839 147.194 9.99236 146.908 10.0536C146.691 10.0986 146.486 10.1901 146.284 10.2793C145.997 10.403 145.722 10.5492 145.446 10.6943C145.226 10.2662 144.977 9.85922 144.67 9.48C144.42 9.17162 144.169 8.86433 143.899 8.57215C143.57 8.21588 143.212 7.92993 142.813 7.6568C142.461 7.41437 142.081 7.25755 141.691 7.09353C141.167 6.87215 140.606 6.78929 140.041 6.7516C139.86 6.74011 139.679 6.73856 139.498 6.7468C139.261 6.75763 139.023 6.7849 138.79 6.82405C138.624 6.85355 138.458 6.883 138.295 6.9266C138.149 6.96395 138.014 7.05008 137.88 7.11534C137.705 7.20108 137.542 7.31807 137.379 7.42517C137.01 7.67421 136.672 8.01168 136.394 8.36062C136.043 8.79836 135.709 9.24076 135.405 9.71142C135.302 9.86835 135.217 10.0322 135.14 10.2022C134.932 10.204 134.724 10.2058 134.516 10.2077C134.472 10.2086 134.428 10.2095 134.386 10.2114C134.055 10.2265 133.734 10.2839 133.408 10.3557C133.259 10.3866 133.111 10.4241 132.962 10.4648C132.717 10.5319 132.485 10.6356 132.263 10.7607C131.962 10.9311 131.667 11.1263 131.401 11.3477C131.083 11.6142 130.836 11.908 130.601 12.2495C130.394 12.5503 130.257 12.8841 130.131 13.225C129.88 13.9199 129.761 14.6483 129.717 15.383C129.705 15.6048 129.847 15.8525 130.006 15.9953C130.176 16.1529 130.408 16.2354 130.642 16.2247C130.876 16.2141 131.099 16.1108 131.254 15.9383C131.424 15.7542 131.475 15.5438 131.486 15.3023C131.491 15.2002 131.495 15.097 131.501 14.9949C131.556 14.5532 131.642 14.121 131.784 13.6994C131.865 13.5007 131.962 13.309 132.075 13.1275C132.189 12.9832 132.307 12.8442 132.437 12.7156C132.689 12.5167 132.958 12.3358 133.24 12.1838C133.516 12.0704 133.821 11.993 134.116 11.9335C134.272 11.9165 134.432 11.9223 134.592 11.914C134.544 12.1199 134.501 12.3256 134.477 12.5392C134.451 12.7857 134.456 12.999 134.599 13.216C134.722 13.4075 134.92 13.5485 135.144 13.5974C135.376 13.6503 135.624 13.6062 135.823 13.4777C135.994 13.3658 136.184 13.1458 136.204 12.9302C136.238 12.5617 136.293 12.2032 136.398 11.8501C136.471 11.6058 136.55 11.3612 136.634 11.1197C136.769 10.7915 136.965 10.4912 137.162 10.1996C137.449 9.79879 137.772 9.4018 138.137 9.07078C138.322 8.92433 138.52 8.79257 138.729 8.68009C138.82 8.64415 138.912 8.61587 139.007 8.59289C139.355 8.54199 139.705 8.51832 140.054 8.53524C140.312 8.56291 140.58 8.59554 140.83 8.6652C140.992 8.73338 141.154 8.80375 141.315 8.87089C141.511 8.95064 141.688 9.05976 141.862 9.17667C142.067 9.32831 142.263 9.48806 142.442 9.67374C142.585 9.82166 142.716 9.97998 142.848 10.1361C143.213 10.5761 143.568 11.0386 143.829 11.5491C143.916 11.7401 143.995 11.9348 144.093 12.1209C144.367 12.6494 144.973 12.9 145.535 12.6826C145.774 12.5896 146.004 12.4465 146.225 12.3171C146.421 12.2029 146.62 12.0887 146.822 11.9831C147.099 11.8631 147.377 11.7759 147.673 11.7131C147.934 11.676 148.186 11.6558 148.448 11.6635C148.757 11.7064 149.056 11.7737 149.354 11.8653C149.611 11.9697 149.858 12.0942 150.091 12.2435C150.286 12.3945 150.48 12.5532 150.655 12.7237C150.832 12.8942 150.991 13.0808 151.149 13.2675C151.288 13.4407 151.398 13.6307 151.496 13.8288C151.566 13.9768 151.632 14.125 151.687 14.278C151.748 14.4482 151.791 14.6215 151.828 14.7962C151.892 15.2292 151.941 15.6727 151.934 16.1101C151.92 16.2104 151.902 16.3098 151.877 16.4084C151.851 16.4633 151.824 16.516 151.793 16.5678C151.602 16.8043 151.368 17.0264 151.301 17.334C151.219 17.6937 151.326 18.0415 151.588 18.3001C151.673 18.3827 151.779 18.4469 151.88 18.5124C152.114 18.6934 152.33 18.8982 152.539 19.1077C152.703 19.27 152.855 19.447 153.008 19.6208C153.148 19.7754 153.292 19.9276 153.433 20.0811C153.697 20.4316 153.901 20.8232 154.097 21.2151C154.174 21.3792 154.251 21.5433 154.317 21.7122C154.412 21.9488 154.469 22.2003 154.547 22.4421C154.7 22.9225 154.853 23.4041 154.96 23.8976C155.057 24.558 155.101 25.2351 155.063 25.9005C155.021 26.2234 154.938 26.5328 154.833 26.842C154.719 27.1364 154.594 27.4258 154.467 27.7164C154.363 27.9555 154.254 28.1861 154.117 28.406C153.88 28.7005 153.631 28.9802 153.351 29.2361C153.026 29.4985 152.677 29.7324 152.319 29.9481C151.968 30.1602 151.62 30.3776 151.255 30.563C151.089 30.633 150.922 30.6844 150.747 30.7231C150.451 30.7662 150.158 30.7883 149.857 30.7977C149.705 30.8024 149.555 30.8005 149.405 30.8008C149.071 30.8007 148.774 30.914 148.532 31.1451C148.279 31.3889 148.169 31.7565 148.096 32.0928C148.041 32.3363 147.997 32.5804 147.924 32.8192C147.791 33.1221 147.624 33.4057 147.44 33.6803C146.977 34.3006 146.468 34.8802 145.902 35.4066C145.617 35.6278 145.308 35.8083 144.986 35.9753C144.63 36.1339 144.272 36.2576 143.89 36.3441C143.605 36.3779 143.328 36.3873 143.042 36.3751C142.778 36.3368 142.527 36.2793 142.273 36.2C142.002 36.0896 141.748 35.961 141.497 35.8115C141.302 35.6671 141.115 35.5135 140.946 35.3383C140.66 34.9767 140.4 34.5932 140.081 34.2595C139.921 34.0883 139.726 33.9975 139.511 33.9186C139.275 33.8341 139.024 33.897 138.787 33.9451C138.561 33.9904 138.337 34.0456 138.11 34.0921C137.851 34.1324 137.589 34.1619 137.325 34.1904C137.029 34.2258 136.738 34.2621 136.44 34.2582C136.33 34.238 136.223 34.2089 136.116 34.1744C135.795 34.0401 135.488 33.8832 135.191 33.6974C134.96 33.5273 134.736 33.3491 134.535 33.1447C134.273 32.7985 134.047 32.4211 133.842 32.0383C133.668 31.6311 133.543 31.2141 133.448 30.7792C133.386 30.4151 133.335 30.045 133.337 29.6769C133.338 29.1664 132.852 28.7648 132.362 28.7871C131.872 28.8095 131.427 29.2537 131.475 29.7619C131.518 30.2397 131.573 30.7158 131.661 31.1894C131.743 31.6314 131.875 32.0657 132.027 32.487C132.194 32.9438 132.459 33.3688 132.714 33.7788C132.888 34.0622 133.083 34.3447 133.332 34.5699C133.472 34.6982 133.621 34.8173 133.77 34.9365C134.144 35.2283 134.535 35.481 134.964 35.6816C135.197 35.7903 135.442 35.881 135.686 35.9641C136.01 36.0752 136.365 36.0962 136.709 36.0718C137.482 36.0146 138.245 35.8691 139.005 35.7183C139.118 35.8314 139.223 35.9548 139.325 36.0761C139.316 36.0655 139.306 36.055 139.297 36.0445C139.479 36.2596 139.651 36.4861 139.858 36.6749C140.028 36.8282 140.208 36.97 140.395 37.1017C140.63 37.2695 140.867 37.4208 141.122 37.557C141.365 37.6894 141.641 37.7831 141.901 37.8709C142.377 38.032 142.876 38.1045 143.378 38.1101C143.849 38.1127 144.338 38.0465 144.79 37.9109C145.27 37.7652 145.724 37.5638 146.166 37.331C146.612 37.0982 146.993 36.8004 147.35 36.4533C147.665 36.1454 147.952 35.8092 148.242 35.4783C148.576 35.0939 148.879 34.6825 149.149 34.2507C149.377 33.8843 149.571 33.48 149.685 33.0619C149.732 32.8856 149.765 32.7045 149.805 32.5252C149.879 32.524 149.955 32.5227 150.029 32.5226C150.194 32.5194 150.359 32.5185 150.521 32.5023C150.787 32.4749 151.064 32.4359 151.324 32.3748C151.586 32.3124 151.816 32.211 152.058 32.0893C152.412 31.9143 152.746 31.6954 153.086 31.4947C153.469 31.2669 153.856 31.0422 154.209 30.772C154.582 30.4855 154.915 30.1658 155.228 29.8153C155.539 29.4692 155.785 29.09 155.968 28.661C156.172 28.1851 156.385 27.7186 156.561 27.233C156.727 26.7698 156.799 26.3141 156.835 25.824C156.869 25.4172 156.828 25.0061 156.794 24.5936ZM151.75 25.7429C151.632 26.0167 151.489 26.2773 151.324 26.5247C151.165 26.7357 150.997 26.9318 150.803 27.1137C150.725 27.1742 150.644 27.2305 150.559 27.2815C150.29 27.3934 150.011 27.4741 149.727 27.5363C149.505 27.5706 149.283 27.5917 149.059 27.5876C148.982 27.5747 148.904 27.5586 148.827 27.5424C148.294 27.4276 147.75 27.7591 147.629 28.2948C147.57 28.556 147.621 28.8362 147.766 29.0596C147.89 29.2533 148.143 29.4707 148.385 29.4936C148.806 29.5291 149.194 29.5563 149.615 29.4966C150.036 29.4401 150.466 29.3493 150.866 29.2051C151.075 29.1287 151.277 29.0275 151.471 28.9211C151.659 28.8195 151.821 28.6751 151.982 28.5331C152.301 28.2534 152.543 27.9061 152.776 27.5537C152.971 27.2601 153.148 26.9464 153.281 26.6183C153.368 26.3996 153.448 26.1802 153.498 25.9479C153.549 25.7046 153.573 25.456 153.592 25.2097C153.655 24.392 153.418 23.578 153.089 22.8406C152.995 22.628 152.886 22.4588 152.673 22.347C152.538 22.2754 152.387 22.2428 152.236 22.2497C152.159 22.2532 152.083 22.2666 152.01 22.2907C151.798 22.3573 151.62 22.509 151.516 22.7065C151.418 22.8895 151.37 23.1732 151.46 23.3695C151.607 23.6903 151.744 24.0039 151.827 24.3429C151.863 24.6118 151.872 24.883 151.859 25.1553C151.836 25.3524 151.805 25.5509 151.75 25.7429Z" fill="#111918"/>
</g>
<defs>
<clipPath id="clip0_25_1250">
<rect width="35.0133" height="35.0133" fill="white" transform="translate(122 5.79663) rotate(-2.61452)"/>
</clipPath>
</defs>
</svg>
