<svg width="50" height="50" viewBox="0 0 50 50" fill="none" xmlns="http://www.w3.org/2000/svg">
<path fill-rule="evenodd" clip-rule="evenodd" d="M45.8334 25C45.8334 36.5063 36.5063 45.8333 25 45.8333C13.4938 45.8333 4.16669 36.5063 4.16669 25C4.16669 13.4938 13.4938 4.16667 25 4.16667C36.5063 4.16667 45.8334 13.4938 45.8334 25ZM36.2896 31.925C36.5072 31.4172 36.5143 30.8438 36.3092 30.3308C36.1041 29.8178 35.7036 29.4073 35.1959 29.1896L27.0834 25.7104V13.5417C27.0834 12.9891 26.8639 12.4592 26.4732 12.0685C26.0825 11.6778 25.5526 11.4583 25 11.4583C24.4475 11.4583 23.9176 11.6778 23.5269 12.0685C23.1362 12.4592 22.9167 12.9891 22.9167 13.5417V26.3958C22.9167 27.6458 23.6604 28.7771 24.8104 29.2688L33.5542 33.0188C34.062 33.2364 34.6354 33.2434 35.1484 33.0383C35.6614 32.8332 36.0719 32.4327 36.2896 31.925Z" fill="white"/>
</svg>