<svg width="45" height="45" viewBox="0 0 45 45" fill="none" xmlns="http://www.w3.org/2000/svg">
<g clip-path="url(#clip0_25_1245)">
<path d="M-8.30041e-06 33.75C-8.30041e-06 34.53 0.269992 35.205 0.809992 35.775C1.34999 36.345 2.02499 36.615 2.83499 36.585H5.62499C7.54499 36.585 9.37499 36.21 11.115 35.46C12.855 34.71 14.34 33.705 15.57 32.445C16.8 31.185 17.805 29.685 18.585 27.945C19.365 26.205 19.74 24.39 19.71 22.5C19.71 20.19 20.52 18.21 22.14 16.56C23.76 14.91 25.755 14.085 28.125 14.085H33.75V16.875C33.75 17.505 33.93 18.045 34.29 18.495C34.65 18.945 35.055 19.275 35.505 19.485C35.955 19.695 36.48 19.755 37.08 19.665C37.68 19.575 38.175 19.32 38.565 18.9L44.19 13.275C44.76 12.675 45.03 12 45 11.25C44.97 10.5 44.7 9.84 44.19 9.27L38.565 3.645C38.115 3.225 37.605 2.97 37.035 2.88C36.465 2.79 35.94 2.85 35.46 3.06C34.98 3.27 34.575 3.6 34.245 4.05C33.915 4.5 33.75 5.025 33.75 5.625V8.46H28.125C26.235 8.46 24.42 8.835 22.68 9.585C20.94 10.335 19.44 11.325 18.18 12.555C16.92 13.785 15.915 15.285 15.165 17.055C14.415 18.825 14.055 20.64 14.085 22.5C14.085 24.84 13.26 26.835 11.61 28.485C9.95999 30.135 7.96499 30.96 5.62499 30.96H2.83499C2.05499 30.96 1.37999 31.23 0.809992 31.77C0.239992 32.31 -0.0300083 32.97 -8.30041e-06 33.75ZM-8.30041e-06 11.295C-8.30041e-06 12.075 0.269992 12.735 0.809992 13.275C1.34999 13.815 2.02499 14.085 2.83499 14.085H5.62499C6.94499 14.085 8.15999 14.37 9.26999 14.94C10.38 15.51 11.355 16.29 12.195 17.28C12.825 15.36 13.755 13.635 14.985 12.105C12.255 9.675 9.13499 8.46 5.62499 8.46H2.83499C2.05499 8.46 1.37999 8.745 0.809992 9.315C0.239992 9.885 -0.0300083 10.545 -8.30041e-06 11.295ZM18.81 32.985C21.48 35.385 24.585 36.585 28.125 36.585H33.75V39.42C33.75 40.02 33.93 40.56 34.29 41.04C34.65 41.52 35.055 41.85 35.505 42.03C35.955 42.21 36.48 42.255 37.08 42.165C37.68 42.075 38.175 41.82 38.565 41.4L44.19 35.775C44.76 35.205 45.03 34.53 45 33.75C44.97 32.97 44.7 32.325 44.19 31.815L38.565 26.19C38.115 25.74 37.605 25.47 37.035 25.38C36.465 25.29 35.94 25.35 35.46 25.56C34.98 25.77 34.575 26.115 34.245 26.595C33.915 27.075 33.75 27.6 33.75 28.17V30.96H28.125C26.835 30.96 25.62 30.69 24.48 30.15C23.34 29.61 22.38 28.83 21.6 27.81C20.94 29.73 20.01 31.455 18.81 32.985Z" fill="white"/>
</g>
<defs>
<clipPath id="clip0_25_1245">
<rect width="45" height="45" fill="white"/>
</clipPath>
</defs>
</svg>